<svg width="208" height="40" viewBox="0 0 208 40" fill="none" xmlns="http://www.w3.org/2000/svg">
    <g clip-path="url(#clip0_0_1)">
        <path
            d="M8.33333 5H31.6667C32.5507 5 33.3986 5.35119 34.0237 5.97631C34.6488 6.60143 35 7.44928 35 8.33333V31.6667C35 32.5507 34.6488 33.3986 34.0237 34.0237C33.3986 34.6488 32.5507 35 31.6667 35H8.33333C7.44928 35 6.60143 34.6488 5.97631 34.0237C5.35119 33.3986 5 32.5507 5 31.6667V8.33333C5 7.44928 5.35119 6.60143 5.97631 5.97631C6.60143 5.35119 7.44928 5 8.33333 5ZM30 8.33333H25.8333C24.2862 8.33333 22.8025 8.94792 21.7085 10.0419C20.6146 11.1358 20 12.6196 20 14.1667V18.3333H16.6667V23.3333H20V35H25V23.3333H30V18.3333H25V15C25 14.558 25.1756 14.134 25.4882 13.8215C25.8007 13.5089 26.2246 13.3333 26.6667 13.3333H30V8.33333Z"
            fill="#ACACAC" />
    </g>
    <g clip-path="url(#clip1_0_1)">
        <path
            d="M93.4292 10.0013C92.1458 10.5846 90.7625 10.968 89.3292 11.1513C90.7958 10.268 91.9292 8.86797 92.4625 7.18464C91.0792 8.01797 89.5458 8.6013 87.9292 8.93464C86.6125 7.5013 84.7625 6.66797 82.6625 6.66797C78.7458 6.66797 75.5458 9.86797 75.5458 13.818C75.5458 14.3846 75.6125 14.9346 75.7292 15.4513C69.7958 15.1513 64.5125 12.3013 60.9958 7.98464C60.3792 9.03464 60.0292 10.268 60.0292 11.568C60.0292 14.0513 61.2792 16.2513 63.2125 17.5013C62.0292 17.5013 60.9292 17.168 59.9625 16.668V16.718C59.9625 20.1846 62.4292 23.0846 65.6958 23.7346C64.647 24.0216 63.546 24.0616 62.4792 23.8513C62.9318 25.2721 63.8184 26.5153 65.0142 27.4062C66.21 28.2971 67.6549 28.7908 69.1458 28.818C66.6186 30.8187 63.4858 31.9002 60.2625 31.8846C59.6958 31.8846 59.1292 31.8513 58.5625 31.7846C61.7292 33.818 65.4958 35.0013 69.5292 35.0013C82.6625 35.0013 89.8792 24.1013 89.8792 14.6513C89.8792 14.3346 89.8792 14.0346 89.8625 13.718C91.2625 12.718 92.4625 11.4513 93.4292 10.0013Z"
            fill="#ACACAC" />
    </g>
    <g clip-path="url(#clip2_0_1)">
        <path
            d="M125.003 3.33203H139.003C144.336 3.33203 148.669 7.66536 148.669 12.9987V26.9987C148.669 29.5625 147.651 32.0212 145.838 33.8341C144.025 35.6469 141.566 36.6654 139.003 36.6654H125.003C119.669 36.6654 115.336 32.332 115.336 26.9987V12.9987C115.336 10.4349 116.354 7.97618 118.167 6.16333C119.98 4.35048 122.439 3.33203 125.003 3.33203ZM124.669 6.66536C123.078 6.66536 121.552 7.29751 120.427 8.42272C119.301 9.54794 118.669 11.0741 118.669 12.6654V27.332C118.669 30.6487 121.353 33.332 124.669 33.332H139.336C140.927 33.332 142.453 32.6999 143.579 31.5747C144.704 30.4495 145.336 28.9233 145.336 27.332V12.6654C145.336 9.3487 142.653 6.66536 139.336 6.66536H124.669ZM140.753 9.16536C141.305 9.16536 141.835 9.38486 142.226 9.77556C142.616 10.1663 142.836 10.6962 142.836 11.2487C142.836 11.8012 142.616 12.3311 142.226 12.7218C141.835 13.1125 141.305 13.332 140.753 13.332C140.2 13.332 139.67 13.1125 139.279 12.7218C138.889 12.3311 138.669 11.8012 138.669 11.2487C138.669 10.6962 138.889 10.1663 139.279 9.77556C139.67 9.38486 140.2 9.16536 140.753 9.16536ZM132.003 11.6654C134.213 11.6654 136.332 12.5433 137.895 14.1061C139.458 15.6689 140.336 17.7886 140.336 19.9987C140.336 22.2088 139.458 24.3285 137.895 25.8913C136.332 27.4541 134.213 28.332 132.003 28.332C129.792 28.332 127.673 27.4541 126.11 25.8913C124.547 24.3285 123.669 22.2088 123.669 19.9987C123.669 17.7886 124.547 15.6689 126.11 14.1061C127.673 12.5433 129.792 11.6654 132.003 11.6654ZM132.003 14.9987C130.677 14.9987 129.405 15.5255 128.467 16.4632C127.529 17.4008 127.003 18.6726 127.003 19.9987C127.003 21.3248 127.529 22.5965 128.467 23.5342C129.405 24.4719 130.677 24.9987 132.003 24.9987C133.329 24.9987 134.6 24.4719 135.538 23.5342C136.476 22.5965 137.003 21.3248 137.003 19.9987C137.003 18.6726 136.476 17.4008 135.538 16.4632C134.6 15.5255 133.329 14.9987 132.003 14.9987Z"
            fill="#ACACAC" />
    </g>
    <path
        d="M203.921 11.5992C203.602 9.83984 202.084 8.55859 200.321 8.15859C197.684 7.59922 192.802 7.19922 187.521 7.19922C182.243 7.19922 177.284 7.59922 174.643 8.15859C172.884 8.55859 171.362 9.75859 171.043 11.5992C170.721 13.5992 170.402 16.3992 170.402 19.9992C170.402 23.5992 170.721 26.3992 171.121 28.3992C171.443 30.1586 172.962 31.4398 174.721 31.8398C177.521 32.3992 182.321 32.7992 187.602 32.7992C192.884 32.7992 197.684 32.3992 200.484 31.8398C202.243 31.4398 203.762 30.2398 204.084 28.3992C204.402 26.3992 204.802 23.518 204.884 19.9992C204.721 16.3992 204.321 13.5992 203.921 11.5992ZM183.202 25.5992V14.3992L192.962 19.9992L183.202 25.5992Z"
        fill="#ACACAC" />
    <defs>
        <clipPath id="clip0_0_1">
            <rect width="40" height="40" fill="white" />
        </clipPath>
        <clipPath id="clip1_0_1">
            <rect width="40" height="40" fill="white" transform="translate(56)" />
        </clipPath>
        <clipPath id="clip2_0_1">
            <rect width="40" height="40" fill="white" transform="translate(112)" />
        </clipPath>
    </defs>
</svg>